<?xml version="1.0" encoding="UTF-8"?>
<svg xmlns="http://www.w3.org/2000/svg" xmlns:xlink="http://www.w3.org/1999/xlink" width="303.13pt" height="275.66pt" viewBox="0 0 303.13 275.66" version="1.1">
<defs>
<clipPath id="clip1">
  <path d="M 24 37 L 303.128906 37 L 303.128906 275.660156 L 24 275.660156 Z M 24 37 "/>
</clipPath>
</defs>
<g id="surface1">
<g clip-path="url(#clip1)" clip-rule="nonzero">
<path style=" stroke:none;fill-rule:evenodd;fill:rgb(13.330078%,9.008789%,7.835388%);fill-opacity:1;" d="M 211.390625 56.347656 C 211.265625 56.84375 210.777344 56.878906 210.425781 57.070313 C 199.160156 63.320313 186.957031 66.945313 174.503906 69.867188 C 173.351563 70.140625 172.191406 70.382813 170.976563 70.652344 C 171.054688 70.839844 171.105469 71.015625 171.195313 71.171875 C 175.226563 77.941406 177.445313 85.308594 178.53125 93.074219 C 179.996094 103.527344 180.945313 114.039063 182.25 124.507813 C 183.386719 133.613281 185.355469 142.582031 186.867188 151.625 C 189.488281 167.320313 193.890625 182.609375 197.230469 198.140625 C 197.886719 201.203125 198.585938 204.257813 199.007813 207.363281 C 199.039063 207.582031 199.128906 207.792969 199.210938 208.085938 C 202.597656 206.359375 205.921875 204.65625 209.253906 202.96875 C 209.976563 202.601563 209.460938 202.199219 209.292969 201.855469 C 207.132813 197.386719 204.953125 192.921875 202.78125 188.460938 C 202.082031 187.03125 202.089844 186.996094 203.496094 186.332031 C 207.746094 184.324219 211.984375 182.296875 216.253906 180.34375 C 217.046875 179.976563 217.113281 179.664063 216.800781 178.898438 C 213.773438 171.515625 210.785156 164.117188 207.789063 156.722656 C 207.164063 155.175781 207.1875 155.125 208.789063 154.5 C 215.832031 151.761719 222.90625 149.105469 230.070313 146.710938 C 230.058594 146.242188 229.746094 145.984375 229.539063 145.679688 C 219.371094 130.8125 209.199219 115.949219 199.023438 101.089844 C 198.097656 99.738281 198.085938 99.722656 199.460938 98.785156 C 216.617188 87.09375 234.191406 76.042969 251.949219 65.285156 C 259.988281 60.417969 268.105469 55.675781 276.390625 51.222656 C 277.195313 50.789063 277.667969 50.800781 278.121094 51.671875 C 286.1875 67.238281 294.304688 82.777344 301.003906 99.003906 C 301.699219 100.699219 302.277344 102.441406 302.96875 104.136719 C 303.328125 105.015625 303.109375 105.40625 302.214844 105.742188 C 292.351563 109.449219 282.453125 113.058594 272.414063 116.277344 C 262.308594 119.515625 252.183594 122.699219 241.953125 125.519531 C 240.992188 125.785156 240.914063 126.125 241.195313 127.007813 C 244.007813 135.886719 246.777344 144.78125 249.558594 153.671875 C 250.019531 155.132813 250.003906 155.171875 248.519531 155.6875 C 241.847656 158.003906 235.179688 160.335938 228.496094 162.609375 C 227.667969 162.890625 227.578125 163.195313 227.804688 163.988281 C 229.746094 170.660156 231.601563 177.355469 233.566406 184.023438 C 233.914063 185.207031 233.640625 185.652344 232.535156 186.125 C 226.777344 188.585938 221.066406 191.160156 215.316406 193.640625 C 214.480469 194.003906 214.484375 194.351563 214.800781 195.078125 C 216.558594 199.101563 218.269531 203.148438 219.988281 207.1875 C 220.519531 208.425781 220.464844 208.554688 219.203125 208.996094 C 213.035156 211.144531 206.871094 213.292969 200.703125 215.429688 C 200.144531 215.621094 199.6875 215.742188 199.71875 216.546875 C 200.183594 228.441406 195.3125 238.449219 188.578125 247.777344 C 186.898438 250.105469 184.992188 252.253906 182.871094 254.207031 C 180.851563 256.066406 178.53125 257.449219 175.972656 258.433594 C 175.386719 258.660156 174.941406 259.003906 174.558594 259.519531 C 170.257813 265.332031 164.667969 269.699219 158.664063 273.589844 C 157.574219 274.296875 156.398438 274.933594 155.132813 275.195313 C 153.703125 275.492188 152.21875 275.53125 150.757813 275.660156 C 150.585938 275.671875 150.273438 275.578125 150.246094 275.484375 C 149.941406 274.234375 149.003906 274.597656 148.152344 274.550781 C 147.210938 274.5 147.3125 273.722656 147.398438 273.070313 C 147.910156 269.285156 148.902344 265.660156 150.898438 262.363281 C 151.128906 261.980469 151.632813 261.519531 150.609375 261.414063 C 144.246094 260.769531 138.019531 259.363281 131.777344 258.035156 C 127.101563 257.042969 122.410156 256.160156 117.644531 255.742188 C 115.953125 255.589844 114.320313 256.183594 112.664063 256.433594 C 104.472656 257.667969 96.261719 258.441406 87.976563 257.738281 C 87.164063 257.667969 86.652344 257.863281 86.140625 258.511719 C 84.121094 261.066406 81.445313 262.882813 78.832031 264.746094 C 75.6875 266.988281 72.386719 268.996094 68.886719 270.644531 C 68.042969 271.039063 67.148438 271.574219 66.269531 270.640625 C 66.175781 270.542969 65.90625 270.589844 65.726563 270.609375 C 64.691406 270.722656 64.277344 270.25 63.5625 269.398438 C 61.984375 267.519531 62.882813 265.910156 63.425781 264.25 C 64.847656 259.890625 67.195313 256.085938 70.714844 252.976563 C 67.265625 250.652344 64.351563 247.886719 61.960938 244.550781 C 57.789063 238.734375 57.1875 232.375 58.976563 225.652344 C 59.496094 223.695313 60.300781 221.824219 61.300781 220.054688 C 63.375 216.390625 64.988281 212.511719 66.621094 208.640625 C 66.9375 207.902344 66.839844 207.421875 66.351563 206.808594 C 61.769531 201.070313 58.128906 194.816406 56.589844 187.558594 C 53.800781 174.433594 55.671875 162.03125 62.679688 150.492188 C 63.457031 149.214844 64.199219 147.910156 65.21875 146.820313 C 65.730469 146.269531 65.566406 146.007813 65.125 145.546875 C 61.898438 142.175781 58.730469 138.75 55.917969 135.011719 C 53.492188 131.792969 51.445313 128.347656 49.84375 124.648438 C 48.050781 120.507813 48.003906 116.496094 50.398438 112.476563 C 53.847656 106.699219 55.085938 100.3125 55.488281 93.644531 C 55.914063 86.578125 56.984375 79.585938 59.550781 72.914063 C 60.242188 71.128906 61.082031 69.414063 62.011719 67.742188 C 62.234375 67.339844 62.40625 67.101563 61.800781 66.808594 C 48.164063 60.242188 36.847656 50.609375 26.3125 39.941406 C 25.753906 39.371094 25.207031 38.792969 24.652344 38.21875 C 24.613281 37.746094 24.957031 37.78125 25.257813 37.75 C 25.710938 37.816406 25.996094 38.101563 26.210938 38.472656 C 26.640625 39.539063 26.890625 38.738281 27.179688 38.375 C 27.8125 38.351563 27.902344 38.867188 28.027344 39.285156 C 28.328125 40.269531 28.914063 41.03125 29.636719 41.742188 C 35.757813 47.78125 42.238281 53.390625 49.359375 58.238281 C 53.300781 61.078125 57.425781 63.609375 61.835938 65.664063 C 62.417969 65.9375 62.824219 65.925781 63.183594 65.34375 C 63.703125 64.496094 64.367188 63.75 64.925781 62.929688 C 65.988281 61.460938 67.324219 60.261719 68.6875 59.085938 C 68.832031 58.957031 68.972656 58.828125 69.148438 58.746094 C 69.421875 58.613281 69.71875 58.441406 69.996094 58.703125 C 70.347656 59.039063 70.089844 59.355469 69.875 59.609375 C 68.90625 60.742188 67.808594 61.75 66.824219 62.878906 C 63.101563 67.152344 60.695313 72.105469 59.203125 77.515625 C 57.828125 82.507813 57.097656 87.617188 56.636719 92.773438 C 56.347656 96.003906 56.261719 99.261719 55.558594 102.449219 C 55.246094 103.878906 54.703125 105.226563 54.273438 106.617188 C 54.117188 107.117188 54.023438 107.589844 54.492188 107.980469 C 56.769531 109.882813 57.679688 112.511719 58.308594 115.265625 C 59.339844 119.804688 59.175781 124.300781 57.675781 128.726563 C 57.3125 129.792969 56.800781 130.777344 56.003906 131.574219 C 55.460938 132.117188 55.472656 132.574219 55.917969 133.167969 C 58.027344 135.988281 60.328125 138.652344 62.640625 141.304688 C 67.21875 146.570313 72.714844 150.777344 78.207031 155 C 78.328125 155.09375 78.464844 155.171875 78.566406 155.28125 C 78.90625 155.640625 79.652344 155.949219 79.1875 156.535156 C 78.765625 157.066406 78.1875 156.566406 77.769531 156.28125 C 74.230469 153.851563 70.898438 151.160156 67.675781 148.332031 C 66.371094 147.1875 66.226563 147.125 65.234375 148.59375 C 61.640625 153.902344 58.960938 159.621094 57.597656 165.921875 C 56.839844 169.410156 56.40625 172.929688 56.433594 176.5 C 56.503906 186.699219 59.46875 195.925781 65.652344 204.082031 C 67.109375 206.003906 68.558594 207.929688 70.320313 209.59375 C 70.984375 210.21875 71.402344 210.988281 71.535156 211.882813 C 71.675781 212.820313 72.128906 212.945313 72.871094 212.492188 C 73.8125 211.914063 74.730469 211.875 75.644531 212.566406 C 76.175781 212.96875 76.613281 212.757813 77.066406 212.351563 C 78.316406 211.230469 78.351563 211.203125 79.703125 212.027344 C 80.496094 212.507813 80.890625 212.429688 81.214844 211.515625 C 81.605469 210.40625 81.964844 210.265625 83.160156 210.546875 C 84.992188 210.976563 85.105469 211.382813 85.4375 208.890625 C 85.644531 207.332031 85.820313 207.09375 87.34375 206.746094 C 88.011719 206.59375 88.269531 206.339844 88.066406 205.652344 C 87.914063 205.132813 87.941406 204.585938 87.996094 204.054688 C 88.53125 199.105469 88.675781 194.144531 88.671875 189.171875 C 88.667969 181.367188 86.800781 174.027344 83.457031 167.027344 C 83.144531 166.367188 82.855469 165.699219 82.589844 165.027344 C 82.457031 164.691406 82.1875 164.246094 82.648438 164.011719 C 83.078125 163.785156 83.34375 164.195313 83.542969 164.519531 C 84.324219 165.792969 85.039063 167.101563 85.640625 168.46875 C 87.933594 173.65625 89.53125 179.046875 89.882813 184.714844 C 90.105469 188.289063 90.347656 191.867188 90.042969 195.476563 C 89.789063 198.480469 89.566406 201.496094 89.441406 204.511719 C 89.414063 205.101563 89.597656 205.640625 89.742188 206.195313 C 90.03125 207.277344 89.796875 207.660156 88.726563 207.949219 C 86.960938 208.421875 86.960938 208.421875 86.707031 210.238281 C 86.652344 210.617188 86.578125 210.992188 86.476563 211.363281 C 86.265625 212.15625 85.734375 212.484375 84.933594 212.390625 C 84.589844 212.351563 84.246094 212.285156 83.925781 212.167969 C 83.0625 211.855469 82.523438 212.039063 82.128906 212.960938 C 81.585938 214.234375 80.953125 214.421875 79.785156 213.664063 C 78.898438 213.089844 78.222656 213.027344 77.511719 213.894531 C 76.902344 214.632813 76.132813 214.679688 75.375 214.109375 C 74.605469 213.527344 73.882813 213.566406 73.035156 213.996094 C 71.199219 214.925781 70.746094 214.730469 70.289063 212.671875 C 70.003906 211.382813 69.253906 210.492188 68.351563 209.640625 C 67.835938 209.15625 67.539063 209.222656 67.273438 209.875 C 66.652344 211.398438 66 212.910156 65.378906 214.433594 C 64.042969 217.699219 62.039063 220.628906 60.742188 223.914063 C 58.683594 229.121094 58.628906 234.347656 60.464844 239.617188 C 61.109375 241.53125 62.308594 243.117188 63.457031 244.738281 C 65.265625 247.289063 67.605469 249.304688 70.015625 251.253906 C 70.824219 251.910156 71.730469 252.386719 72.683594 252.796875 C 73.0625 252.960938 73.570313 253.136719 73.394531 253.660156 C 73.230469 254.15625 72.738281 253.945313 72.402344 253.828125 C 71.808594 253.625 71.363281 253.824219 70.960938 254.226563 C 67.15625 257.796875 64.882813 262.207031 63.769531 267.257813 C 64.203125 266.121094 64.742188 265.03125 65.335938 263.96875 C 65.953125 262.867188 66.632813 261.804688 67.507813 260.882813 C 67.640625 260.746094 67.742188 260.578125 67.882813 260.449219 C 68.175781 260.179688 68.527344 259.914063 68.894531 260.203125 C 69.324219 260.539063 69 260.910156 68.761719 261.191406 C 67.75 262.402344 66.984375 263.769531 66.222656 265.136719 C 65.644531 266.179688 65.25 267.296875 64.949219 268.445313 C 64.847656 268.828125 64.644531 269.335938 65.257813 269.484375 C 65.730469 269.597656 66.074219 269.316406 66.222656 268.867188 C 66.808594 267.078125 68.015625 265.683594 69.140625 264.238281 C 69.539063 263.722656 69.984375 263.246094 70.535156 262.890625 C 70.824219 262.707031 71.179688 262.492188 71.480469 262.785156 C 71.804688 263.105469 71.515625 263.421875 71.3125 263.695313 C 70.613281 264.648438 69.769531 265.492188 69.097656 266.46875 C 68.511719 267.316406 67.875 268.140625 67.589844 269.15625 C 67.421875 269.746094 67.59375 269.960938 68.210938 269.746094 C 69.449219 269.3125 70.527344 268.570313 71.667969 267.957031 C 74.097656 266.65625 76.375 265.109375 78.640625 263.542969 C 80.535156 261.996094 82.613281 260.667969 84.269531 258.835938 C 84.492188 258.589844 84.933594 258.382813 84.828125 258.035156 C 84.699219 257.609375 84.183594 257.714844 83.832031 257.675781 C 81.851563 257.457031 79.894531 257.121094 77.980469 256.558594 C 77.460938 256.40625 76.613281 256.292969 76.777344 255.609375 C 76.957031 254.851563 77.785156 255.128906 78.351563 255.253906 C 82.320313 256.144531 86.339844 256.488281 90.390625 256.757813 C 96.308594 257.152344 102.144531 256.628906 107.984375 255.886719 C 109.433594 255.703125 110.902344 255.703125 112.347656 255.511719 C 110.554688 255.714844 108.757813 255.796875 106.953125 255.734375 C 106.550781 255.71875 105.953125 255.757813 105.921875 255.246094 C 105.878906 254.601563 106.523438 254.691406 106.949219 254.648438 C 112.230469 254.09375 117.476563 254.414063 122.71875 255.191406 C 128.019531 255.976563 133.230469 257.214844 138.476563 258.277344 C 145.34375 259.667969 152.230469 260.929688 159.28125 260.585938 C 165.617188 260.277344 171.824219 259.347656 177.601563 256.457031 C 180.660156 254.925781 182.964844 252.558594 185.21875 250.109375 C 185.917969 249.351563 186.566406 248.546875 187.203125 247.734375 C 191.675781 241.824219 195.167969 235.402344 197.285156 228.273438 C 198.226563 225.097656 198.496094 221.816406 198.625 218.523438 C 198.679688 217.097656 198.597656 217.035156 197.226563 216.8125 C 195.597656 216.550781 194.003906 216.15625 192.402344 215.773438 C 189.179688 215.007813 186.328125 213.464844 183.671875 211.5625 C 181.648438 210.113281 181.726563 208.84375 183.886719 207.554688 C 185.460938 206.613281 187.070313 205.726563 188.789063 205.050781 C 190.996094 204.179688 193.183594 203.261719 195.402344 202.421875 C 196.765625 201.902344 196.84375 201.808594 196.550781 200.410156 C 195.539063 195.539063 194.390625 190.699219 193.273438 185.851563 C 192.523438 182.605469 191.640625 179.394531 190.882813 176.152344 C 190.628906 175.066406 190.113281 174.5625 188.988281 174.386719 C 184.582031 173.695313 180.296875 172.585938 176.34375 170.421875 C 175.328125 169.863281 174.382813 169.226563 173.597656 168.375 C 172.773438 167.488281 172.746094 166.550781 173.484375 165.578125 C 173.90625 165.023438 174.453125 164.613281 175.046875 164.246094 C 178.207031 162.269531 181.746094 161.273438 185.304688 160.34375 C 187.496094 159.769531 187.277344 159.925781 186.898438 157.84375 C 184.867188 146.660156 182.578125 135.527344 181.058594 124.257813 C 180.441406 119.671875 180.125 115.054688 179.566406 110.460938 C 178.628906 102.792969 177.902344 95.097656 176.402344 87.507813 C 175.890625 84.910156 174.984375 82.425781 174.140625 79.925781 C 173.191406 77.214844 171.9375 74.648438 170.503906 72.164063 C 170.078125 71.429688 169.550781 71.207031 168.703125 71.371094 C 167.511719 71.605469 166.292969 71.75 165.070313 71.765625 C 164.675781 71.675781 164.3125 71.554688 164.4375 71.023438 C 164.703125 70.640625 165.121094 70.5625 165.535156 70.492188 C 172.375 69.367188 179.070313 67.632813 185.738281 65.792969 C 191.433594 64.144531 197.070313 62.324219 202.4375 59.769531 C 203.539063 59.242188 204.667969 58.773438 205.765625 58.230469 C 207.316406 57.46875 208.902344 56.78125 209.816406 55.183594 C 209.910156 55.015625 210.089844 54.921875 210.277344 54.859375 C 210.53125 54.832031 210.789063 54.949219 210.699219 55.199219 C 210.449219 55.90625 211.023438 56.050781 211.390625 56.347656 "/>
</g>
<path style=" stroke:none;fill-rule:evenodd;fill:rgb(13.330078%,9.008789%,7.835388%);fill-opacity:1;" d="M 27.238281 38.332031 C 27.125 38.730469 27.371094 39.355469 26.777344 39.453125 C 26.3125 39.53125 26.097656 39.09375 26.042969 38.648438 C 26.324219 38.164063 25.992188 37.753906 25.847656 37.347656 C 23.839844 31.605469 22.734375 25.664063 22.367188 19.617188 C 22.171875 16.429688 22 13.195313 22.5625 10.007813 C 22.722656 9.082031 22.15625 8.769531 21.511719 8.484375 C 19.410156 7.558594 17.339844 6.570313 15.226563 5.675781 C 11.203125 3.972656 7.101563 2.511719 2.851563 1.484375 C 2.484375 1.394531 2.121094 1.25 1.628906 1.347656 C 1.550781 1.96875 1.890625 2.484375 2.128906 3.015625 C 6.519531 12.683594 12.007813 21.65625 18.863281 29.785156 C 20.710938 31.976563 22.46875 34.242188 24.445313 36.324219 C 24.871094 36.773438 25.425781 37.210938 25.355469 37.960938 C 25.09375 37.96875 24.8125 37.929688 24.652344 38.21875 C 20.683594 33.863281 16.945313 29.335938 13.429688 24.597656 C 11 21.328125 8.769531 17.949219 6.753906 14.429688 C 4.351563 10.222656 1.949219 6.003906 0.285156 1.421875 C 0.128906 0.992188 -0.1875 0.429688 0.152344 0.171875 C 0.464844 -0.0625 1.105469 -0.0195313 1.546875 0.0976563 C 4.253906 0.832031 6.976563 1.519531 9.628906 2.417969 C 14.035156 3.917969 18.265625 5.855469 22.460938 7.878906 C 43.648438 18.089844 61.277344 32.789063 76.476563 50.574219 C 77.035156 51.226563 77.320313 52.402344 78.113281 52.472656 C 78.808594 52.535156 79.558594 51.714844 80.324219 51.375 C 86.789063 48.519531 93.527344 46.574219 100.519531 45.5625 C 106.46875 44.699219 112.449219 44.148438 118.476563 44.40625 C 128.539063 44.839844 138.398438 46.335938 147.816406 50.097656 C 149.808594 50.894531 151.765625 51.769531 153.507813 53.03125 C 154.117188 53.472656 154.46875 53.46875 155.050781 53.011719 C 161.992188 47.546875 169.59375 43.152344 177.492188 39.246094 C 187.726563 34.183594 198.261719 29.933594 209.460938 27.527344 C 214.8125 26.378906 220.1875 25.335938 225.648438 24.808594 C 228.730469 24.511719 231.804688 24.097656 234.914063 24.152344 C 236.007813 23.925781 237.128906 24.222656 238.222656 23.984375 L 242.03125 23.925781 C 244.496094 23.808594 246.964844 23.75 249.429688 23.957031 C 249.605469 25.210938 248.535156 25.785156 247.949219 26.601563 C 245.261719 30.355469 242.125 33.710938 238.726563 36.828125 C 238.335938 36.988281 238.082031 37.3125 237.785156 37.582031 C 237.558594 37.785156 237.332031 37.992188 237.023438 37.710938 C 237.011719 37.039063 237.546875 36.714844 237.945313 36.332031 C 241.03125 33.351563 243.9375 30.210938 246.542969 26.800781 C 246.933594 26.285156 247.347656 25.789063 247.691406 25.214844 C 247.363281 24.8125 246.953125 24.960938 246.601563 24.949219 C 242.355469 24.8125 238.117188 25.007813 233.882813 25.214844 C 230.492188 25.378906 227.101563 25.703125 223.726563 26.105469 C 222.964844 26.195313 222.671875 26.558594 222.671875 27.304688 C 222.679688 32.324219 221.011719 36.933594 219 41.40625 C 216.871094 46.148438 214.414063 50.730469 211.535156 55.285156 C 219.148438 51.15625 226.316406 46.675781 232.742188 41.078125 C 233.578125 40.347656 234.402344 39.609375 235.21875 38.859375 C 235.683594 38.4375 236.121094 37.894531 236.859375 37.929688 C 237.144531 38.34375 236.742188 38.589844 236.625 38.90625 C 235.902344 39.992188 234.804688 40.722656 233.847656 41.523438 C 230.164063 44.625 226.359375 47.582031 222.261719 50.144531 C 218.835938 52.289063 215.429688 54.460938 211.808594 56.269531 C 211.652344 56.347656 211.53125 56.335938 211.390625 56.347656 C 210.0625 56.582031 210.40625 55.644531 210.414063 54.949219 C 210.324219 54.660156 210.453125 54.417969 210.601563 54.195313 C 212.132813 51.902344 213.328125 49.421875 214.699219 47.039063 C 216.230469 44.371094 217.386719 41.550781 218.582031 38.746094 C 220.058594 35.285156 221.050781 31.675781 221.339844 27.894531 C 221.429688 26.691406 221.222656 26.445313 219.992188 26.660156 C 213.355469 27.8125 206.746094 29.058594 200.3125 31.121094 C 186.597656 35.515625 173.769531 41.738281 161.695313 49.550781 C 159.316406 51.089844 157.101563 52.863281 154.835938 54.558594 C 154.527344 54.785156 154.238281 55.046875 153.886719 55.203125 C 153.324219 55.453125 152.839844 55.386719 152.882813 54.648438 C 152.929688 53.921875 152.480469 53.625 151.980469 53.332031 C 150.289063 52.347656 148.507813 51.554688 146.679688 50.863281 C 140.566406 48.554688 134.257813 47.0625 127.769531 46.277344 C 123.515625 45.765625 119.242188 45.316406 114.972656 45.429688 C 103.820313 45.714844 92.890625 47.351563 82.480469 51.625 C 80.671875 52.367188 78.953125 53.289063 77.226563 54.199219 C 76.921875 54.359375 76.640625 54.566406 76.292969 54.628906 C 76.023438 54.679688 75.742188 54.679688 75.601563 54.382813 C 75.488281 54.144531 75.628906 53.945313 75.769531 53.757813 C 76.03125 53.402344 76.648438 53.273438 76.566406 52.71875 C 76.488281 52.167969 76.023438 51.8125 75.683594 51.402344 C 71.535156 46.335938 67 41.621094 62.269531 37.101563 C 53.078125 28.320313 43.027344 20.664063 32.070313 14.207031 C 29.765625 12.84375 27.40625 11.574219 25.054688 10.292969 C 24.195313 9.824219 23.949219 9.953125 23.714844 10.925781 C 23.660156 11.148438 23.621094 11.375 23.613281 11.601563 C 23.324219 19.417969 24.058594 27.113281 26.359375 34.617188 C 26.628906 35.492188 26.878906 36.378906 27.214844 37.234375 C 27.351563 37.585938 27.492188 37.960938 27.238281 38.332031 "/>
<path style=" stroke:none;fill-rule:evenodd;fill:rgb(16.479492%,14.501953%,14.109802%);fill-opacity:1;" d="M 249.429688 23.957031 C 246.964844 23.945313 244.496094 23.9375 242.03125 23.925781 C 244.410156 23.632813 246.804688 23.765625 249.195313 23.757813 C 249.273438 23.757813 249.351563 23.890625 249.429688 23.957031 "/>
<path style=" stroke:none;fill-rule:evenodd;fill:rgb(13.330078%,9.008789%,7.835388%);fill-opacity:1;" d="M 237.070313 37.730469 C 237.796875 37.75 237.972656 36.757813 238.726563 36.828125 C 238.09375 37.589844 237.386719 38.277344 236.625 38.90625 C 236.699219 38.589844 236.769531 38.273438 236.84375 37.960938 C 236.789063 37.753906 236.867188 37.679688 237.070313 37.730469 "/>
<path style=" stroke:none;fill-rule:evenodd;fill:rgb(16.479492%,14.501953%,14.109802%);fill-opacity:1;" d="M 238.222656 23.984375 C 237.136719 24.398438 236.019531 24.136719 234.914063 24.152344 C 236.003906 23.871094 237.113281 23.964844 238.222656 23.984375 "/>
<path style=" stroke:none;fill-rule:evenodd;fill:rgb(99.21875%,84.375%,13.719177%);fill-opacity:1;" d="M 27.238281 38.332031 C 26.675781 36.480469 26.105469 34.632813 25.554688 32.78125 C 24.71875 29.953125 24.207031 27.046875 23.789063 24.140625 C 23.261719 20.464844 23.238281 16.738281 23.363281 13.027344 C 23.390625 12.210938 23.296875 11.414063 23.476563 10.5625 C 23.730469 9.363281 24.117188 9.460938 24.972656 9.910156 C 34.039063 14.667969 42.609375 20.1875 50.617188 26.566406 C 59.863281 33.933594 68.308594 42.121094 75.90625 51.179688 C 75.957031 51.238281 76.003906 51.296875 76.054688 51.355469 C 77.269531 52.835938 77.269531 52.835938 75.855469 54.003906 C 75.753906 54.089844 75.699219 54.238281 75.625 54.355469 C 76.042969 54.691406 76.316406 54.375 76.589844 54.21875 C 83.898438 50.0625 91.84375 47.824219 100.070313 46.453125 C 104.414063 45.730469 108.796875 45.257813 113.191406 45.199219 C 125.339844 45.03125 137.214844 46.597656 148.539063 51.269531 C 150.023438 51.882813 151.453125 52.613281 152.800781 53.496094 C 153.164063 53.734375 153.8125 53.949219 153.117188 54.550781 C 152.964844 54.683594 152.984375 54.90625 153.160156 55.054688 C 153.335938 55.203125 153.519531 55.144531 153.683594 55.03125 C 153.996094 54.808594 154.300781 54.578125 154.605469 54.347656 C 170.097656 42.546875 187.339844 34.320313 206.074219 29.160156 C 210.757813 27.871094 215.5625 27.136719 220.339844 26.285156 C 221.289063 26.113281 221.691406 26.332031 221.636719 27.4375 C 221.429688 31.546875 220.253906 35.410156 218.726563 39.179688 C 217.84375 41.351563 217.007813 43.574219 215.851563 45.601563 C 214.0625 48.730469 212.628906 52.066406 210.414063 54.949219 C 209.339844 56.785156 207.546875 57.65625 205.730469 58.570313 C 199.546875 61.679688 193.0625 63.96875 186.445313 65.921875 C 186.265625 65.972656 186.066406 65.964844 185.878906 65.984375 C 181.640625 67.09375 177.320313 67.433594 172.964844 67.226563 C 170.789063 67.121094 168.621094 66.972656 166.441406 67.015625 C 164.785156 67.046875 164.703125 67.175781 164.804688 68.792969 C 164.855469 69.542969 165.332031 70.390625 164.519531 71.042969 C 164.445313 71.628906 164.9375 71.40625 165.195313 71.519531 C 165.460938 71.625 165.617188 71.828125 165.730469 72.082031 C 166.835938 74.441406 168.582031 76.296875 170.453125 78.054688 C 171.257813 78.804688 172.222656 79.230469 173.289063 79.4375 C 173.660156 79.507813 174.066406 79.441406 174.355469 79.757813 C 176.199219 84.285156 177.148438 89.027344 177.828125 93.847656 C 179.296875 104.332031 180.199219 114.882813 181.550781 125.378906 C 182.664063 134.019531 184.378906 142.566406 185.984375 151.125 C 186.488281 153.789063 186.929688 156.46875 187.492188 159.121094 C 187.679688 160.007813 187.355469 160.1875 186.605469 160.367188 C 182.996094 161.214844 179.414063 162.175781 176.132813 163.972656 C 175.53125 164.304688 174.9375 164.660156 174.382813 165.0625 C 172.804688 166.210938 172.753906 167.5 174.292969 168.679688 C 177.101563 170.828125 180.347656 172.078125 183.726563 172.96875 C 185.679688 173.480469 187.683594 173.808594 189.671875 174.179688 C 190.410156 174.316406 190.808594 174.570313 191.023438 175.40625 C 193.222656 183.914063 195.121094 192.488281 197.0625 201.054688 C 197.246094 201.871094 197.003906 202.164063 196.257813 202.453125 C 192.339844 203.96875 188.363281 205.347656 184.691406 207.433594 C 181.835938 209.058594 181.835938 209.949219 184.53125 211.835938 C 188.53125 214.628906 193.078125 215.847656 197.792969 216.5625 C 198.828125 216.71875 198.960938 217.109375 198.964844 218.019531 C 199.019531 226.269531 196.289063 233.683594 192.242188 240.710938 C 190.8125 243.195313 189.328125 245.648438 187.449219 247.832031 C 185.019531 249.925781 181.988281 250.683594 179.039063 251.601563 C 175.605469 252.667969 172.042969 252.84375 168.492188 252.972656 C 165.703125 253.074219 162.90625 252.964844 160.113281 253 C 153.675781 253.074219 147.394531 252.101563 141.210938 250.339844 C 134.289063 248.363281 127.53125 245.90625 120.765625 243.46875 C 115.496094 241.570313 110.164063 239.925781 104.539063 239.496094 C 99.644531 239.121094 94.925781 239.945313 90.417969 241.863281 C 87.386719 243.152344 84.378906 244.515625 81.175781 245.289063 C 75.359375 246.695313 69.714844 246.285156 64.371094 243.371094 C 62.742188 242.480469 61.269531 241.414063 60.261719 239.804688 C 58.589844 235.539063 58.421875 231.167969 59.5 226.753906 C 60.144531 224.101563 61.292969 221.636719 62.628906 219.265625 C 64.433594 216.058594 65.820313 212.660156 67.195313 209.257813 C 67.472656 208.566406 67.644531 208.449219 68.222656 209.050781 C 69.417969 210.296875 70.621094 211.476563 70.765625 213.359375 C 70.839844 214.324219 71.453125 214.570313 72.3125 214.070313 C 72.574219 213.917969 72.882813 213.828125 73.121094 213.644531 C 73.949219 213 74.710938 213.0625 75.460938 213.777344 C 76.269531 214.550781 76.976563 214.335938 77.515625 213.460938 C 78.09375 212.519531 78.742188 212.492188 79.527344 213.183594 C 79.726563 213.355469 79.980469 213.46875 80.210938 213.605469 C 81.023438 214.089844 81.519531 213.90625 81.855469 212.984375 C 82.40625 211.484375 82.445313 211.503906 83.980469 211.886719 C 84.316406 211.96875 84.652344 212.03125 84.988281 212.113281 C 85.699219 212.285156 86.085938 211.984375 86.203125 211.285156 C 86.332031 210.492188 86.519531 209.703125 86.570313 208.90625 C 86.617188 208.144531 86.933594 207.800781 87.6875 207.832031 C 87.796875 207.839844 87.910156 207.78125 88.023438 207.757813 C 89.804688 207.417969 89.789063 207.425781 89.226563 205.660156 C 88.878906 204.566406 89.183594 203.453125 89.28125 202.363281 C 89.855469 195.949219 90.136719 189.535156 89.414063 183.117188 C 88.664063 176.453125 86.484375 170.253906 83.199219 164.425781 C 83.125 164.296875 83.019531 164.183594 82.910156 164.078125 C 82.867188 164.039063 82.773438 164.050781 82.652344 164.03125 C 82.402344 164.492188 82.785156 164.800781 82.945313 165.140625 C 85.421875 170.371094 87.542969 175.726563 88.386719 181.5 C 89.160156 186.785156 89.140625 192.101563 88.824219 197.417969 C 88.683594 199.746094 88.464844 202.070313 88.292969 204.398438 C 88.269531 204.738281 88.175781 205.15625 88.324219 205.414063 C 89.171875 206.882813 88.214844 207.058594 87.144531 207.085938 C 86.144531 207.113281 85.863281 207.691406 85.785156 208.546875 C 85.703125 209.457031 85.855469 210.652344 85.238281 211.15625 C 84.636719 211.640625 83.582031 210.964844 82.757813 210.726563 C 81.871094 210.476563 81.707031 211.011719 81.480469 211.613281 C 80.929688 213.089844 80.863281 213.171875 79.574219 212.238281 C 78.503906 211.464844 77.824219 211.667969 77.136719 212.664063 C 76.824219 213.109375 76.464844 213.703125 75.796875 213.035156 C 74.808594 212.039063 73.820313 212.242188 72.726563 212.925781 C 71.597656 213.632813 71.503906 213.574219 71.3125 212.214844 C 71.167969 211.207031 70.671875 210.484375 69.996094 209.757813 C 63.472656 202.738281 58.5625 194.824219 56.929688 185.214844 C 54.675781 171.933594 57.328125 159.679688 64.90625 148.519531 C 66.171875 146.660156 66.210938 146.695313 67.886719 148.136719 C 71.050781 150.855469 74.277344 153.492188 77.714844 155.867188 C 77.933594 156.019531 78.144531 156.195313 78.378906 156.316406 C 78.621094 156.445313 78.910156 156.839844 79.152344 156.464844 C 79.371094 156.121094 78.921875 155.960938 78.703125 155.796875 C 75.199219 153.140625 71.707031 150.453125 68.429688 147.515625 C 63.542969 143.136719 59.242188 138.210938 55.390625 132.898438 C 55.175781 132.605469 54.703125 132.304688 55.242188 131.851563 C 57.335938 130.089844 57.808594 127.582031 58.265625 125.097656 C 59.03125 120.90625 58.65625 116.777344 57.265625 112.773438 C 56.613281 110.898438 55.773438 109.0625 53.917969 107.992188 C 53.558594 107.78125 53.59375 107.542969 53.734375 107.226563 C 56.117188 101.804688 55.9375 95.945313 56.578125 90.230469 C 57.101563 85.550781 57.847656 80.914063 59.195313 76.394531 C 61.085938 70.039063 64.378906 64.511719 69.164063 59.886719 C 69.46875 59.59375 69.941406 59.386719 69.972656 58.566406 C 68.871094 59.234375 68.070313 60.003906 67.289063 60.769531 C 66.496094 61.546875 65.78125 62.398438 65.03125 63.214844 C 64.054688 63.691406 63.066406 63.339844 62.136719 63.136719 C 57.621094 62.140625 53.199219 60.851563 49.210938 58.410156 C 43.867188 54.96875 39.058594 50.859375 34.355469 46.613281 C 33.675781 46 33 45.382813 32.34375 44.746094 C 30.371094 42.820313 28.105469 41.132813 27.238281 38.332031 "/>
<path style=" stroke:none;fill-rule:evenodd;fill:rgb(99.21875%,84.375%,13.719177%);fill-opacity:1;" d="M 216.453125 175.96875 C 213.84375 169.523438 211.25 163.074219 208.605469 156.644531 C 208.265625 155.816406 208.386719 155.5 209.234375 155.175781 C 216.015625 152.578125 222.800781 150.011719 229.679688 147.695313 C 231.445313 147.101563 231.464844 147.03125 230.386719 145.460938 C 220.253906 130.660156 210.125 115.859375 199.964844 101.078125 C 199.359375 100.203125 199.320313 99.804688 200.28125 99.160156 C 224.585938 82.867188 249.300781 67.238281 274.851563 52.964844 C 277.1875 51.65625 277.207031 51.695313 278.421875 54.035156 C 285.71875 68.074219 292.980469 82.132813 299.171875 96.707031 C 300.230469 99.203125 301.289063 101.699219 302.089844 104.292969 C 302.136719 104.835938 301.710938 104.90625 301.351563 104.976563 C 300.976563 105.054688 300.597656 105.113281 300.214844 105.113281 C 296.125 105.125 292.035156 105.050781 287.949219 105.339844 C 284.40625 105.585938 280.859375 105.78125 277.320313 106.085938 C 270.3125 106.6875 263.328125 107.515625 256.371094 108.539063 C 246.832031 109.945313 237.324219 111.496094 227.972656 113.882813 C 227.117188 114.101563 226.273438 114.34375 225.441406 114.636719 C 224.25 115.0625 224.15625 115.222656 224.664063 116.382813 C 226.148438 119.78125 227.550781 123.214844 228.96875 126.640625 C 232.296875 134.699219 235.621094 142.761719 238.9375 150.824219 C 239.613281 152.46875 239.488281 152.699219 237.773438 153.105469 C 231.8125 154.519531 225.773438 155.488281 219.679688 156.082031 C 218.078125 156.238281 216.484375 156.414063 214.886719 156.570313 C 213.78125 156.679688 213.65625 156.859375 213.980469 157.984375 C 215.136719 162.027344 216.347656 166.054688 217.519531 170.097656 C 217.699219 170.722656 217.910156 171.335938 217.871094 172.003906 C 217.863281 172.324219 217.855469 172.652344 217.777344 172.96875 C 217.539063 173.726563 217.464844 174.53125 217.226563 175.289063 C 217.117188 175.640625 217.089844 176.171875 216.453125 175.96875 "/>
<path style=" stroke:none;fill-rule:evenodd;fill:rgb(89.451599%,66.601563%,18.431091%);fill-opacity:1;" d="M 217.589844 172.113281 C 217.257813 169.683594 216.332031 167.414063 215.699219 165.066406 C 215.003906 162.453125 214.207031 159.867188 213.414063 157.28125 C 213.238281 156.710938 213.277344 156.457031 213.9375 156.386719 C 215.671875 156.207031 217.402344 155.9375 219.136719 155.773438 C 224.476563 155.269531 229.78125 154.578125 235.007813 153.359375 C 236.082031 153.109375 237.15625 152.855469 238.238281 152.671875 C 239.046875 152.53125 239.210938 152.28125 238.863281 151.46875 C 237.234375 147.644531 235.6875 143.785156 234.097656 139.945313 C 230.757813 131.878906 227.421875 123.808594 224.039063 115.753906 C 223.71875 114.984375 223.925781 114.785156 224.617188 114.554688 C 229.109375 113.070313 233.746094 112.191406 238.359375 111.214844 C 243.117188 110.207031 247.925781 109.480469 252.726563 108.738281 C 256.816406 108.105469 260.929688 107.632813 265.027344 107.070313 C 269.660156 106.4375 274.316406 106.027344 278.980469 105.675781 C 282.621094 105.402344 286.273438 105.203125 289.914063 104.960938 C 293.589844 104.71875 297.25 104.886719 300.914063 104.789063 C 301.378906 104.777344 301.851563 104.824219 302.089844 104.292969 C 302.539063 105.050781 301.804688 105.011719 301.46875 105.140625 C 293.316406 108.203125 285.15625 111.25 276.882813 113.964844 C 265.160156 117.808594 253.394531 121.503906 241.515625 124.828125 C 239.859375 125.292969 239.839844 125.34375 240.339844 126.945313 C 243.117188 135.796875 245.875 144.65625 248.699219 153.496094 C 249.023438 154.5 248.777344 154.769531 247.867188 155.078125 C 241.175781 157.351563 234.511719 159.695313 227.824219 161.976563 C 226.867188 162.304688 226.570313 162.714844 226.886719 163.738281 C 227.601563 166.035156 228.1875 168.367188 228.824219 170.6875 C 229.070313 171.746094 228.886719 172.804688 228.792969 173.859375 C 228.761719 174.199219 228.605469 174.550781 228.226563 174.644531 C 227.800781 174.75 227.617188 174.394531 227.445313 174.105469 C 226.84375 173.09375 226.21875 172.089844 225.738281 170.796875 C 225.671875 172.03125 225.617188 173.109375 225.417969 174.167969 C 225.355469 174.511719 225.3125 174.886719 224.941406 175.023438 C 224.476563 175.195313 224.261719 174.789063 224.027344 174.511719 C 223.507813 173.902344 223.089844 173.214844 222.578125 172.476563 C 222.402344 173.386719 222.347656 174.265625 222.109375 175.097656 C 221.878906 175.914063 221.382813 176.097656 220.773438 175.527344 C 219.636719 174.464844 218.410156 173.472656 217.589844 172.113281 "/>
<path style=" stroke:none;fill-rule:evenodd;fill:rgb(89.451599%,66.601563%,18.431091%);fill-opacity:1;" d="M 60.261719 239.804688 C 62.410156 241.921875 64.84375 243.617188 67.726563 244.546875 C 73.292969 246.339844 78.792969 246.003906 84.273438 244.011719 C 87.75 242.746094 91.023438 240.972656 94.636719 240.074219 C 98.179688 239.191406 101.734375 238.96875 105.386719 239.289063 C 112.363281 239.898438 118.777344 242.429688 125.261719 244.75 C 132.757813 247.433594 140.273438 250.070313 148.097656 251.652344 C 151.191406 252.277344 154.339844 252.605469 157.496094 252.652344 C 161.324219 252.707031 165.152344 252.746094 168.976563 252.648438 C 174.9375 252.492188 180.699219 251.382813 186.035156 248.5625 C 186.503906 248.316406 186.976563 248.074219 187.449219 247.832031 C 182.9375 254.484375 176.632813 258.296875 168.785156 259.808594 C 160.523438 261.402344 152.292969 261.246094 144.066406 259.671875 C 137.46875 258.414063 130.894531 257.007813 124.289063 255.789063 C 118.363281 254.699219 112.378906 254.367188 106.363281 254.984375 C 106.269531 254.992188 106.175781 255.058594 106.082031 255.304688 L 112.820313 255.304688 C 112.824219 255.410156 112.832031 255.511719 112.839844 255.617188 C 109.675781 256.011719 106.523438 256.46875 103.351563 256.78125 C 98.78125 257.230469 94.199219 257.34375 89.605469 257.058594 C 85.714844 256.820313 81.839844 256.46875 78.042969 255.511719 C 77.859375 255.464844 77.671875 255.417969 77.480469 255.398438 C 77.265625 255.378906 76.980469 255.308594 76.917969 255.609375 C 76.859375 255.898438 77.136719 256 77.347656 256.050781 C 78.792969 256.390625 80.238281 256.753906 81.703125 257.027344 C 83.003906 257.265625 84.324219 257.402344 85.847656 257.609375 C 83.769531 260.246094 81.179688 262.039063 78.621094 263.867188 C 78.269531 263.539063 78.359375 263.09375 78.316406 262.6875 C 78.132813 261.035156 77.683594 259.457031 76.914063 257.992188 C 75.941406 256.125 74.429688 254.9375 72.339844 254.5 C 71.832031 254.394531 71.253906 254.457031 70.832031 254.046875 C 71.4375 252.800781 72.503906 253.847656 73.296875 253.636719 C 73.320313 253.296875 73.105469 253.25 72.949219 253.175781 C 67.15625 250.367188 63.226563 245.746094 60.324219 240.136719 C 60.273438 240.042969 60.28125 239.917969 60.261719 239.804688 "/>
<path style=" stroke:none;fill-rule:evenodd;fill:rgb(59.179688%,23.925781%,5.099487%);fill-opacity:1;" d="M 217.589844 172.113281 C 218.832031 172.941406 219.691406 174.171875 220.777344 175.164063 C 220.992188 175.359375 221.15625 175.75 221.492188 175.640625 C 221.855469 175.523438 221.847656 175.105469 221.902344 174.773438 C 222.0625 173.855469 222.101563 172.910156 222.476563 171.894531 C 223.171875 172.847656 223.800781 173.703125 224.417969 174.5625 C 224.53125 174.71875 224.632813 174.9375 224.835938 174.898438 C 225.101563 174.847656 225.097656 174.578125 225.132813 174.347656 C 225.324219 173.042969 225.269531 171.703125 225.652344 170.230469 C 226.351563 171.515625 226.957031 172.652344 227.585938 173.773438 C 227.734375 174.042969 227.773438 174.566406 228.210938 174.433594 C 228.539063 174.332031 228.527344 173.871094 228.558594 173.527344 C 228.644531 172.578125 228.734375 171.632813 228.824219 170.6875 C 230.160156 175.292969 231.488281 179.898438 232.84375 184.5 C 233.011719 185.0625 232.65625 185.171875 232.3125 185.320313 C 227.210938 187.5625 222.101563 189.800781 216.996094 192.039063 C 216.261719 192.359375 215.527344 192.6875 214.789063 193 C 213.480469 193.558594 213.371094 193.75 213.925781 195.054688 C 215.550781 198.886719 217.1875 202.714844 218.835938 206.535156 C 219.488281 208.050781 219.5 208.035156 217.996094 208.554688 C 212.265625 210.539063 206.527344 212.519531 200.808594 214.539063 C 199.882813 214.867188 199.613281 214.699219 199.621094 213.710938 C 199.632813 212.492188 199.59375 211.25 199.34375 210.066406 C 199.152344 209.167969 199.484375 208.855469 200.183594 208.507813 C 203.328125 206.933594 206.433594 205.28125 209.589844 203.734375 C 210.59375 203.242188 210.6875 202.769531 210.199219 201.804688 C 207.964844 197.328125 205.808594 192.808594 203.601563 188.316406 C 203.304688 187.710938 203.207031 187.335938 203.976563 186.984375 C 207.066406 185.574219 210.128906 184.105469 213.203125 182.65625 C 215.019531 182.472656 216.828125 182.210938 218.648438 182.09375 C 219.484375 182.042969 219.710938 181.714844 219.503906 180.929688 C 218.992188 178.976563 218.410156 177.042969 217.882813 175.09375 C 217.695313 174.394531 217.488281 173.703125 217.53125 172.96875 C 217.554688 172.683594 217.570313 172.398438 217.589844 172.113281 "/>
<path style=" stroke:none;fill-rule:evenodd;fill:rgb(16.479492%,14.501953%,14.109802%);fill-opacity:1;" d="M 25.355469 37.960938 C 22.710938 34.816406 20.027344 31.699219 17.425781 28.519531 C 13.945313 24.265625 10.792969 19.777344 8.035156 15.019531 C 5.753906 11.085938 3.574219 7.101563 1.757813 2.929688 C 1.484375 2.304688 1.28125 1.648438 1.003906 0.882813 C 2.832031 0.964844 4.421875 1.589844 6.03125 2.035156 C 10.824219 3.363281 15.375 5.335938 19.875 7.433594 C 20.183594 7.578125 20.492188 7.738281 20.8125 7.859375 C 22.972656 8.6875 22.761719 8.675781 22.667969 10.988281 C 22.539063 14.1875 22.46875 17.394531 22.769531 20.605469 C 23.027344 23.335938 23.332031 26.046875 23.855469 28.730469 C 24.464844 31.835938 25.292969 34.890625 26.34375 37.878906 C 26.453125 38.183594 26.855469 38.671875 26.042969 38.648438 C 25.894531 38.339844 25.664063 38.109375 25.355469 37.960938 "/>
<path style=" stroke:none;fill-rule:evenodd;fill:rgb(99.21875%,84.375%,13.719177%);fill-opacity:1;" d="M 70.832031 254.046875 C 74.011719 254.082031 76.238281 255.585938 77.492188 258.472656 C 78.234375 260.179688 78.769531 261.960938 78.621094 263.867188 C 75.378906 266.25 71.929688 268.285156 68.308594 270.03125 C 67.988281 270.183594 67.570313 270.507813 67.257813 270.226563 C 66.953125 269.949219 67.21875 269.507813 67.316406 269.148438 C 67.777344 267.46875 68.941406 266.226563 69.960938 264.898438 C 70.464844 264.246094 71.015625 263.628906 71.589844 262.9375 C 70.921875 262.648438 70.675781 263.101563 70.425781 263.359375 C 68.773438 265.0625 67.160156 266.800781 66.464844 269.160156 C 66.230469 269.945313 65.53125 269.921875 64.964844 269.824219 C 64.246094 269.703125 64.476563 269.085938 64.589844 268.617188 C 65.226563 265.96875 66.578125 263.679688 68.15625 261.5 C 68.414063 261.148438 68.855469 260.894531 68.699219 260.289063 C 66.203125 262.363281 64.851563 265.195313 63.714844 268.296875 C 62.898438 265.242188 66.9375 257.292969 70.832031 254.046875 "/>
<path style=" stroke:none;fill-rule:evenodd;fill:rgb(99.21875%,84.375%,13.719177%);fill-opacity:1;" d="M 165.453125 267.632813 C 162.386719 270.097656 159.355469 272.609375 155.683594 274.15625 C 155.15625 274.378906 154.46875 274.949219 154.039063 274.511719 C 153.589844 274.042969 154.175781 273.375 154.4375 272.847656 C 155.390625 270.929688 156.53125 269.121094 157.789063 267.386719 C 158.019531 267.070313 158.417969 266.808594 158.316406 266.3125 C 157.960938 266.121094 157.824219 266.421875 157.671875 266.601563 C 155.804688 268.796875 154.214844 271.167969 153.125 273.847656 C 152.835938 274.5625 151.769531 275.09375 151.070313 274.890625 C 150.480469 274.722656 150.734375 274.273438 150.796875 273.949219 C 151.246094 271.488281 152.105469 269.171875 153.359375 267.007813 C 153.664063 266.476563 153.980469 265.949219 154.25 265.40625 C 154.398438 265.097656 154.894531 264.71875 154.4375 264.425781 C 153.992188 264.136719 153.8125 264.703125 153.628906 264.996094 C 152.140625 267.324219 150.878906 269.769531 150.308594 272.492188 C 150.117188 273.398438 149.597656 273.640625 148.832031 273.765625 C 148.300781 273.855469 148.140625 273.640625 148.203125 273.148438 C 148.71875 269.164063 149.878906 265.402344 152.050781 261.984375 C 152.320313 261.554688 152.652344 261.601563 153.039063 261.664063 C 154.855469 261.863281 156.6875 261.617188 158.503906 261.847656 C 158.804688 261.886719 159.121094 261.839844 159.410156 261.957031 C 161.796875 262.914063 163.78125 264.402344 165.332031 266.457031 C 165.597656 266.8125 165.699219 267.210938 165.453125 267.632813 "/>
<path style=" stroke:none;fill-rule:evenodd;fill:rgb(91.014099%,30.979919%,14.109802%);fill-opacity:1;" d="M 57.777344 120.871094 C 57.8125 123.78125 57.398438 126.441406 56.363281 128.992188 C 56.050781 129.75 55.613281 130.402344 55.03125 130.976563 C 54.664063 131.335938 54.402344 131.480469 54.078125 130.929688 C 52.027344 127.429688 49.910156 123.976563 49.363281 119.828125 C 49.085938 117.714844 49.640625 115.820313 50.554688 113.980469 C 51.335938 112.402344 52.183594 110.863281 52.914063 109.265625 C 53.273438 108.476563 53.652344 108.640625 54.097656 109.0625 C 55.320313 110.222656 56.0625 111.691406 56.59375 113.257813 C 57.449219 115.777344 57.832031 118.375 57.777344 120.871094 "/>
<path style=" stroke:none;fill-rule:evenodd;fill:rgb(77.734375%,43.138123%,16.088867%);fill-opacity:1;" d="M 189.761719 173.394531 C 184.800781 172.613281 179.957031 171.441406 175.664063 168.683594 C 173.390625 167.21875 173.410156 166.582031 175.683594 165.175781 C 179.210938 162.996094 183.175781 162.015625 187.144531 161.054688 C 187.664063 160.929688 187.847656 161.15625 187.960938 161.691406 C 188.730469 165.378906 189.527344 169.0625 190.355469 172.738281 C 190.496094 173.363281 190.320313 173.511719 189.761719 173.394531 "/>
<path style=" stroke:none;fill-rule:evenodd;fill:rgb(77.734375%,43.138123%,16.088867%);fill-opacity:1;" d="M 198.925781 214.859375 C 198.957031 215.929688 198.957031 215.929688 197.570313 215.710938 C 193.078125 215.003906 188.773438 213.816406 184.976563 211.160156 C 182.890625 209.699219 182.875 209.414063 185.070313 208.152344 C 188.773438 206.035156 192.804688 204.695313 196.738281 203.109375 C 197.257813 202.902344 197.46875 203.007813 197.578125 203.589844 C 198.28125 207.230469 198.675781 210.910156 198.925781 214.859375 "/>
<path style=" stroke:none;fill-rule:evenodd;fill:rgb(89.451599%,66.601563%,18.431091%);fill-opacity:1;" d="M 165.453125 267.632813 C 165.1875 266.105469 163.945313 265.332031 162.929688 264.394531 C 160.660156 262.296875 157.925781 261.6875 154.929688 261.847656 C 154.304688 261.882813 153.632813 262.042969 153.039063 261.664063 C 156.394531 261.628906 159.753906 261.808594 163.109375 261.445313 C 166.308594 261.105469 169.460938 260.582031 172.550781 259.695313 C 172.804688 259.625 173.046875 259.484375 173.425781 259.640625 C 171.050781 262.621094 168.550781 265.421875 165.453125 267.632813 "/>
<path style=" stroke:none;fill-rule:evenodd;fill:rgb(89.451599%,66.601563%,18.431091%);fill-opacity:1;" d="M 164.523438 71.042969 C 164.882813 70.136719 164.503906 69.246094 164.398438 68.371094 C 164.230469 66.980469 164.414063 66.71875 165.851563 66.65625 C 169.09375 66.523438 172.324219 66.917969 175.566406 66.910156 C 178.730469 66.898438 181.851563 66.53125 184.964844 66.019531 C 185.261719 65.972656 185.574219 65.992188 185.878906 65.984375 C 181.597656 67.394531 177.222656 68.4375 172.828125 69.402344 C 170.074219 70.011719 167.292969 70.5 164.523438 71.042969 "/>
<path style=" stroke:none;fill-rule:evenodd;fill:rgb(89.451599%,66.601563%,18.431091%);fill-opacity:1;" d="M 174.359375 79.757813 C 172.570313 79.851563 171.140625 79.136719 169.871094 77.90625 C 167.945313 76.035156 166.195313 74.058594 165.195313 71.515625 C 166.59375 71.335938 168 71.199219 169.386719 70.953125 C 169.914063 70.859375 170.15625 71.015625 170.394531 71.417969 C 171.980469 74.070313 173.40625 76.804688 174.359375 79.757813 "/>
<path style=" stroke:none;fill-rule:evenodd;fill:rgb(89.451599%,66.601563%,18.431091%);fill-opacity:1;" d="M 49.210938 58.40625 C 51.066406 59.175781 52.902344 60.015625 54.789063 60.695313 C 58.109375 61.894531 61.472656 62.964844 65.03125 63.214844 C 64.632813 63.769531 64.234375 64.328125 63.835938 64.886719 C 62.761719 66.390625 62.769531 66.375 61.03125 65.558594 C 56.839844 63.589844 52.90625 61.199219 49.210938 58.40625 "/>
<path style=" stroke:none;fill-rule:evenodd;fill:rgb(77.34375%,42.747498%,16.088867%);fill-opacity:1;" d="M 217.535156 172.96875 C 218.527344 175.789063 219.175781 178.710938 220.007813 181.578125 C 220.144531 182.046875 219.9375 182.332031 219.46875 182.375 C 217.550781 182.546875 215.628906 182.699219 213.707031 182.859375 C 213.511719 182.875 213.332031 182.820313 213.203125 182.65625 C 214.507813 182.035156 215.792969 181.375 217.121094 180.8125 C 217.992188 180.4375 218.132813 179.945313 217.753906 179.117188 C 217.277344 178.089844 216.882813 177.019531 216.453125 175.96875 C 217.089844 175.539063 216.980469 174.832031 217.128906 174.214844 C 217.230469 173.792969 217.394531 173.382813 217.535156 172.96875 "/>
<path style=" stroke:none;fill-rule:evenodd;fill:rgb(16.479492%,14.501953%,14.109802%);fill-opacity:1;" d="M 237.070313 37.730469 C 236.996094 37.808594 236.921875 37.882813 236.84375 37.960938 C 233.917969 40.269531 231.25 42.878906 228.253906 45.109375 C 225.253906 47.34375 222.132813 49.382813 218.972656 51.367188 C 216.421875 52.96875 213.828125 54.492188 210.871094 55.855469 C 211.851563 54.191406 212.746094 52.730469 213.589844 51.234375 C 217.144531 44.914063 220.550781 38.527344 222.03125 31.320313 C 222.316406 29.929688 222.480469 28.53125 222.363281 27.121094 C 222.277344 26.121094 222.804688 25.855469 223.621094 25.796875 C 226.503906 25.585938 229.371094 25.265625 232.25 25.0625 C 237.125 24.71875 241.996094 24.613281 246.878906 24.652344 C 247.316406 24.65625 247.941406 24.40625 248.148438 24.835938 C 248.335938 25.21875 247.832031 25.621094 247.5625 25.972656 C 244.84375 29.5625 241.902344 32.957031 238.636719 36.0625 C 238.085938 36.589844 237.59375 37.175781 237.070313 37.730469 "/>
<path style=" stroke:none;fill-rule:evenodd;fill:rgb(12.547302%,8.616638%,7.446289%);fill-opacity:1;" d="M 148.285156 99.25 C 148.238281 102.296875 147.1875 105.585938 143.878906 107.34375 C 135.757813 111.660156 127.597656 106.578125 126.871094 98.65625 C 126.390625 93.378906 128.472656 89.738281 132.710938 87.945313 C 139.972656 84.871094 148.671875 90.863281 148.285156 99.25 "/>
<path style=" stroke:none;fill-rule:evenodd;fill:rgb(12.547302%,8.616638%,7.446289%);fill-opacity:1;" d="M 78.625 96.386719 C 78.53125 99.289063 78.199219 102.09375 76.058594 104.363281 C 72.484375 108.148438 66.226563 107.453125 63.609375 102.9375 C 61.195313 98.773438 62.050781 92.144531 65.46875 88.742188 C 67.585938 86.628906 70.199219 85.976563 73.070313 86.480469 C 75.582031 86.921875 76.800781 88.859375 77.707031 90.996094 C 78.425781 92.707031 78.65625 94.53125 78.625 96.386719 "/>
<path style=" stroke:none;fill-rule:evenodd;fill:rgb(89.451599%,66.601563%,18.431091%);fill-opacity:1;" d="M 90.222656 158.890625 C 93.957031 159.9375 97.769531 160.101563 101.546875 160.050781 C 104.59375 160.007813 107.652344 160.019531 110.695313 159.859375 C 111.832031 159.796875 112.96875 159.675781 114.113281 159.660156 C 114.722656 159.652344 115.046875 159.804688 114.636719 160.429688 C 112.144531 164.253906 108.914063 167.242188 104.691406 169.078125 C 103.4375 169.621094 102.191406 169.289063 101.035156 168.777344 C 96.359375 166.699219 92.898438 163.265625 90.222656 158.890625 "/>
<path style=" stroke:none;fill-rule:evenodd;fill:rgb(89.451599%,66.601563%,18.431091%);fill-opacity:1;" d="M 156.230469 202.3125 C 157.210938 200.28125 158.523438 198.449219 159.703125 196.542969 C 161.390625 193.816406 162.960938 191.023438 164.476563 188.203125 C 166.015625 185.34375 167.507813 182.464844 169.019531 179.59375 C 169.195313 179.253906 169.351563 178.820313 169.777344 178.816406 C 170.269531 178.816406 170.425781 179.300781 170.605469 179.671875 C 171.351563 181.238281 171.558594 182.949219 171.855469 184.628906 C 172.199219 186.558594 172.039063 188.511719 172.105469 190.453125 C 172.15625 191.941406 171.53125 193.089844 170.570313 194.144531 C 168.371094 196.558594 165.605469 198.167969 162.773438 199.675781 C 161.230469 200.492188 159.8125 201.578125 158.03125 201.894531 C 158.496094 200.585938 159.609375 199.769531 160.488281 198.808594 C 163.503906 195.519531 168.796875 186.789063 169.902344 183.234375 C 166.746094 189.710938 162.996094 196.246094 157.5 201.613281 C 157.164063 201.941406 156.925781 202.578125 156.230469 202.3125 "/>
<path style=" stroke:none;fill-rule:evenodd;fill:rgb(13.330078%,9.423828%,7.446289%);fill-opacity:1;" d="M 156.230469 202.3125 C 158.921875 200.011719 161.21875 197.359375 163.175781 194.425781 C 165.699219 190.640625 168.070313 186.761719 169.824219 182.542969 C 169.90625 182.34375 170.054688 182.171875 170.191406 181.960938 C 170.601563 182.207031 170.449219 182.496094 170.367188 182.769531 C 169.96875 184.09375 169.390625 185.339844 168.765625 186.5625 C 165.898438 192.171875 162.511719 197.414063 158.03125 201.894531 C 154.183594 205.34375 150.183594 208.597656 145.722656 211.242188 C 144.507813 211.960938 143.332031 212.800781 142.035156 213.328125 C 138.953125 214.582031 136.195313 216.230469 133.945313 218.738281 C 132.949219 219.84375 132.425781 219.730469 131.796875 218.421875 C 131.25 217.292969 130.714844 217.054688 129.582031 217.714844 C 128.277344 218.472656 128.222656 218.375 127.53125 217.027344 C 127.480469 216.925781 127.421875 216.828125 127.371094 216.722656 C 126.625 215.261719 126.609375 215.214844 125.039063 215.707031 C 124.074219 216.007813 123.464844 215.898438 123.34375 214.78125 C 123.21875 213.601563 122.726563 213.007813 121.425781 213.414063 C 120.527344 213.691406 120.140625 213.226563 120.203125 212.332031 C 120.222656 212.066406 120.167969 211.789063 120.210938 211.527344 C 120.378906 210.539063 119.980469 210.195313 118.980469 210.148438 C 117.5 210.082031 117.292969 209.773438 118.144531 208.640625 C 119.691406 206.582031 119.597656 204.214844 119.71875 201.871094 C 120.296875 190.675781 123.804688 180.476563 130.109375 171.222656 C 133.3125 166.519531 137.351563 162.648438 141.894531 159.269531 C 142.070313 159.140625 142.230469 158.9375 142.589844 159.085938 C 142.59375 159.605469 142.101563 159.78125 141.800781 160.03125 C 137.152344 163.886719 132.914063 168.125 129.703125 173.277344 C 124.84375 181.070313 121.609375 189.445313 120.839844 198.675781 C 120.746094 199.820313 120.550781 200.957031 120.496094 202.097656 C 120.382813 204.570313 120.597656 207.109375 118.394531 209.375 C 120.949219 209.089844 121.265625 210.371094 121.050781 212.082031 C 120.976563 212.65625 121.316406 212.636719 121.773438 212.582031 C 123.511719 212.367188 123.53125 212.378906 123.976563 214.105469 C 124.136719 214.730469 124.230469 215.117188 125.085938 214.851563 C 127.035156 214.253906 127.105469 214.289063 127.980469 216.179688 C 128.402344 217.097656 128.789063 217.308594 129.734375 216.816406 C 131.472656 215.90625 131.199219 215.792969 132.179688 217.542969 C 132.832031 218.707031 132.953125 218.792969 133.832031 217.773438 C 135.8125 215.480469 138.375 214.191406 141.042969 212.886719 C 146.636719 210.164063 151.691406 206.585938 156.230469 202.3125 "/>
<path style=" stroke:none;fill-rule:evenodd;fill:rgb(13.719177%,9.423828%,7.446289%);fill-opacity:1;" d="M 139.199219 126.398438 C 139.1875 119.128906 145.023438 113.296875 152.3125 113.289063 C 159.601563 113.285156 165.542969 119.113281 165.589844 126.308594 C 165.632813 133.519531 159.640625 139.492188 152.324219 139.4375 C 144.65625 139.382813 138.921875 133.238281 139.199219 126.398438 "/>
<path style=" stroke:none;fill-rule:evenodd;fill:rgb(14.109802%,9.812927%,7.446289%);fill-opacity:1;" d="M 103.808594 126.417969 C 102.542969 126.425781 101.433594 125.910156 100.34375 125.355469 C 98.371094 124.34375 96.402344 123.335938 94.453125 122.28125 C 93.816406 121.941406 93.265625 121.933594 92.621094 122.253906 C 90.773438 123.160156 88.894531 123.996094 86.972656 124.75 C 85.324219 125.390625 83.925781 125.164063 82.640625 123.988281 C 82.105469 123.496094 81.53125 123.046875 81.007813 122.550781 C 80.777344 122.335938 80.359375 122.078125 80.691406 121.710938 C 81.039063 121.320313 81.289063 121.753906 81.535156 121.953125 C 82.269531 122.5625 82.988281 123.191406 83.730469 123.785156 C 84.445313 124.359375 85.222656 124.421875 86.101563 124.148438 C 88.230469 123.492188 90.222656 122.535156 92.203125 121.550781 C 93.140625 121.078125 93.941406 121.058594 94.882813 121.585938 C 96.84375 122.6875 98.882813 123.65625 100.863281 124.730469 C 102.75 125.753906 104.597656 125.9375 106.484375 124.722656 C 107.410156 124.125 108.390625 123.601563 109.34375 123.042969 C 109.585938 122.902344 109.863281 122.769531 110.058594 123.042969 C 110.203125 123.25 110.054688 123.453125 109.878906 123.636719 C 108.957031 124.589844 105.011719 126.410156 103.808594 126.417969 "/>
<path style=" stroke:none;fill-rule:evenodd;fill:rgb(12.939453%,9.008789%,7.446289%);fill-opacity:1;" d="M 94.339844 110.097656 C 95.175781 110.097656 96.019531 110.058594 96.855469 110.113281 C 97.570313 110.15625 97.722656 110.570313 97.242188 111.097656 C 96.378906 112.039063 95.300781 112.703125 94.105469 113.125 C 93.4375 113.363281 90.964844 111.644531 90.863281 110.921875 C 90.777344 110.3125 91.25 110.109375 91.707031 110.078125 C 92.582031 110.027344 93.460938 110.066406 94.339844 110.066406 "/>
<path style=" stroke:none;fill-rule:evenodd;fill:rgb(99.609375%,99.609375%,99.609375%);fill-opacity:1;" d="M 133.9375 98.152344 C 131.613281 98.164063 130.308594 96.816406 130.304688 94.398438 C 130.304688 91.886719 132.214844 89.90625 134.667969 89.871094 C 136.6875 89.84375 138.308594 91.511719 138.316406 93.621094 C 138.328125 96.367188 136.617188 98.136719 133.9375 98.152344 "/>
<path style=" stroke:none;fill-rule:evenodd;fill:rgb(99.609375%,99.609375%,99.609375%);fill-opacity:1;" d="M 75.734375 93.070313 C 75.820313 94.164063 75.261719 94.988281 74.535156 95.6875 C 73.25 96.917969 71.585938 96.671875 70.636719 95.167969 C 69.769531 93.789063 69.960938 91.472656 71.046875 90.214844 C 72.40625 88.644531 74.464844 88.9375 75.3125 90.832031 C 75.628906 91.539063 75.695313 92.304688 75.734375 93.070313 "/>
<path style=" stroke:none;fill-rule:evenodd;fill:rgb(91.014099%,30.979919%,14.109802%);fill-opacity:1;" d="M 152.214844 138.601563 C 145.597656 138.605469 139.722656 133.253906 139.941406 125.949219 C 140.140625 119.429688 145.773438 114.039063 152.53125 114.136719 C 159.476563 114.238281 164.832031 119.722656 164.746094 126.644531 C 164.664063 133.324219 159.046875 138.683594 152.214844 138.601563 "/>
</g>
</svg>
