<svg id="Capa_1" enable-background="new 0 0 511.99 511.99" height="512" viewBox="0 0 511.99 511.99" width="512" xmlns="http://www.w3.org/2000/svg"><g><g><path d="m255.995 80.82c-23.063 0-40.17-21.395-35.095-43.893l5.252-23.284c1.176-5.212 7.087-7.769 11.69-5.057l18.153 10.693 18.153-10.693c4.604-2.712 10.515-.155 11.69 5.057l5.252 23.284c5.074 22.498-12.032 43.893-35.095 43.893z" fill="#e759aa"/><path d="m291.09 36.927-5.252-23.284c-1.176-5.212-7.087-7.769-11.69-5.057l-14.16 8.342c2.175 1.654 3.926 4.063 4.465 6.456l3.1 13.545c4.162 18.451-6.6 36.151-23.327 41.925 3.669 1.267 7.62 1.969 11.768 1.969 23.064-.002 40.17-21.398 35.096-43.896z" fill="#e03d9c"/><path d="m200.71 44.667 56.541 19.108c39.861 13.471 66.692 50.861 66.692 92.937 0 25.311-20.519 45.83-45.83 45.83h-44.237c-25.311 0-45.83-20.519-45.83-45.83v-102.957c0-6.564 6.445-11.189 12.664-9.088z" fill="#e759aa"/><path d="m257.251 63.776-56.541-19.109c-6.219-2.102-12.664 2.523-12.664 9.087v2.123c2.259-3.566 6.77-5.466 11.178-3.976l34.489 11.874c39.861 13.471 66.692 50.861 66.692 92.937 0 25.311-20.519 45.83-45.83 45.83h23.537c25.311 0 45.83-20.519 45.83-45.83.001-42.075-26.831-79.465-66.691-92.936z" fill="#e03d9c"/><path d="m262.032 504.49h-12.075c-4.861 0-8.802-3.941-8.802-8.802v-293.146h29.678v293.146c0 4.861-3.94 8.802-8.801 8.802z" fill="#bbec6c"/><path d="m254.258 202.542v293.146c0 4.082-2.782 7.505-6.551 8.5.72.19 1.471.301 2.251.301h12.075c4.861 0 8.802-3.941 8.802-8.802v-293.145z" fill="#a2e62e"/><path d="m311.279 44.667-56.541 19.108c-39.861 13.471-66.692 50.861-66.692 92.937 0 25.311 20.519 45.83 45.83 45.83h44.237c25.311 0 45.83-20.519 45.83-45.83v-102.957c0-6.564-6.445-11.189-12.664-9.088z" fill="#e759aa"/><path d="m311.279 44.667-15.671 5.296c2.818 1.633 4.797 4.666 4.797 8.3v98.449c0 25.311-20.519 45.83-45.83 45.83h23.537c25.311 0 45.83-20.519 45.83-45.83v-102.957c.001-6.564-6.444-11.189-12.663-9.088z" fill="#e03d9c"/><g><g><path d="m321.239 396.627-12.135-2.118-3.846 8.53c-1.922 4.264-7.945 4.351-9.991.145l-29.128-59.9 31.45-15.293 29.56 60.789c1.968 4.046-1.477 8.62-5.91 7.847z" fill="#2ed1e2"/><path d="m270.835 275.765 65.092-51.144c8.282-6.507 20.32-4.783 26.442 3.788l12.304 17.226c3.339 4.675 5.135 10.277 5.135 16.022v52.035c0 10.201-8.27 18.471-18.471 18.471h-90.502z" fill="#7ae5ed"/><path d="m374.673 245.635-12.304-17.226c-6.122-8.571-18.16-10.295-26.442-3.788l-.376.296c1.21 1 2.324 2.152 3.282 3.492l12.304 17.226c3.339 4.675 5.135 10.277 5.135 16.022v52.035c0 10.201-8.27 18.471-18.471 18.471h23.537c10.201 0 18.471-8.27 18.471-18.471v-52.035c-.002-5.746-1.797-11.347-5.136-16.022z" fill="#2ed1e2"/></g><g><path d="m190.751 396.627 12.135-2.118 3.846 8.53c1.922 4.264 7.945 4.351 9.991.145l29.128-59.9-31.45-15.293-29.56 60.789c-1.969 4.046 1.476 8.62 5.91 7.847z" fill="#7ae5ed"/><path d="m241.155 275.765-65.092-51.144c-8.282-6.507-20.32-4.783-26.442 3.788l-12.304 17.226c-3.339 4.675-5.135 10.277-5.135 16.022v52.035c0 10.201 8.27 18.471 18.471 18.471h90.502z" fill="#7ae5ed"/><path d="m176.063 224.621c-8.282-6.507-20.32-4.783-26.442 3.788l-1.254 1.755c5.22-1.172 10.911-.098 15.467 3.482l53.784 42.118v56.398h23.537v-56.398z" fill="#2ed1e2"/></g><path d="m283.53 346.501h-57.916c-12.522 0-22.673-10.151-22.673-22.673v-25.392c0-12.522 10.151-22.673 22.673-22.673h57.916c12.522 0 22.673 10.151 22.673 22.673v25.392c0 12.522-10.151 22.673-22.673 22.673z" fill="#2ed1e2"/><path d="m283.53 275.765h-23.537c12.522 0 22.673 10.151 22.673 22.673v25.391c0 12.522-10.151 22.673-22.673 22.673h23.537c12.522 0 22.673-10.151 22.673-22.673v-25.391c0-12.522-10.151-22.673-22.673-22.673z" fill="#03bed7"/></g></g><path d="m380.778 241.27-12.3-17.22c-4.164-5.831-10.363-9.601-17.457-10.616-7.09-1.012-14.094.864-19.72 5.288l-52.967 41.616v-50.302c27.442.668 53.978-24.512 53.108-53.366v-102.915c0-5.493-2.664-10.684-7.127-13.887-4.464-3.203-10.234-4.063-15.438-2.306l-9.597 3.244c-.177-1.844-.458-3.688-.871-5.528l-5.258-23.281c-1.072-4.779-4.396-8.793-8.892-10.738-4.5-1.946-9.704-1.62-13.921.869l-14.345 8.448-14.337-8.446c-4.224-2.491-9.43-2.818-13.927-.872-4.495 1.945-7.819 5.959-8.89 10.729l-5.262 23.298c-.413 1.837-.693 3.678-.87 5.52l-9.594-3.242c-5.206-1.759-10.98-.895-15.444 2.311-4.461 3.203-7.125 8.394-7.125 13.886v102.95c0 11.028 3.364 21.284 9.121 29.797 9.593 14.189 25.831 23.535 44.211 23.535h29.458v58.223h-14.68v-30.83c0-4.142-3.358-7.5-7.5-7.5s-7.5 3.358-7.5 7.5v22.904l-52.965-41.615c-5.629-4.425-12.634-6.304-19.723-5.289-7.093 1.016-13.292 4.786-17.456 10.616l-12.302 17.223c-4.275 5.99-6.535 13.04-6.535 20.387v52.03c0 14.32 11.65 25.97 25.97 25.97h49.294c.082.132.168.262.252.393l-22.101 45.447c-2.147 4.416-1.648 9.596 1.305 13.519 2.954 3.926 7.795 5.843 12.64 5l6.402-1.118 1.456 3.235c2.108 4.653 6.59 7.584 11.697 7.651.059 0 .117.001.175.001 5.029 0 9.5-2.798 11.695-7.327l10.195-20.967v110.197c0 8.988 7.312 16.3 16.3 16.3h12.08c8.987 0 16.3-7.312 16.3-16.3v-110.201l10.191 20.959c2.198 4.538 6.67 7.336 11.698 7.336.059 0 .117 0 .176-.001 5.106-.066 9.588-2.998 11.703-7.667l1.449-3.219 6.408 1.119c4.84.845 9.681-1.074 12.634-5 2.953-3.923 3.453-9.104 1.305-13.519l-22.295-45.84h49.741c14.32 0 25.971-11.65 25.971-25.97v-52.03c.001-7.345-2.259-14.395-6.536-20.389zm-82.071 82.559c0 8.366-6.807 15.172-15.173 15.172h-57.924c-8.366 0-15.172-6.806-15.172-15.172v-25.392c0-8.366 6.806-15.173 15.172-15.173h57.924c8.366 0 15.173 6.807 15.173 15.173zm14.974-272.057c.962-.264 2.496-.011 2.762 1.982v26.995c-12.675 4.291-24.351 11.466-34.776 21.383-3.001 2.855-3.12 7.602-.266 10.603 2.856 3.002 7.604 3.121 10.604.265 7.476-7.111 15.664-12.542 24.438-16.221v59.933c-.081 20.569-17.171 38.56-38.328 38.327h-27.816c2.742-12.07 9.1-34.894 21.528-56.045 2.098-3.571.904-8.167-2.667-10.266-3.573-2.098-8.168-.905-10.267 2.667-14.772 25.141-21.499 51.735-23.968 63.644-11.818.501-24.887-5.954-31.755-15.409-4.787-6.397-7.624-14.332-7.624-22.918 0-38.888 24.752-73.38 61.593-85.832 12.935-4.371 44.272-14.961 56.542-19.108zm-85.471-13.19 5.262-23.299c.016-.073.041-.183.213-.258.177-.076.283-.014.353.027l18.15 10.69c2.349 1.384 5.263 1.384 7.613 0l18.155-10.693c.063-.037.169-.101.347-.024.172.075.197.185.216.267l5.258 23.282c.542 2.414.775 4.834.699 7.235l-28.478 9.625-28.484-9.625c-.077-2.4.155-4.818.696-7.227zm-31.794 13.477c.327-.234 1.009-.585 1.897-.284l36.872 12.46c-16.552 9.109-30.153 22.379-39.642 38.222v-48.697c.001-.889.475-1.415.873-1.701zm-45.772 272.6c-6.049 0-10.97-4.921-10.97-10.97v-52.03c0-4.204 1.295-8.241 3.743-11.67l12.301-17.221c1.759-2.463 4.378-4.056 7.375-4.485 2.992-.427 5.951.364 8.328 2.234l48.693 38.258c-10.554 1.952-19.202 9.406-22.832 19.273l-27.46-12.508c-3.768-1.716-8.217-.053-9.934 3.716-1.717 3.77-.053 8.217 3.716 9.934l31.833 14.5c.02.695-.038 19.803.021 20.969zm61.178 71.432-2.098-4.66c-1.408-3.126-4.759-4.899-8.129-4.31l-8.321 1.453 18.462-37.966c4.157 2.162 8.873 3.393 13.874 3.393h6.677zm51.512 99.598c0 .717-.583 1.3-1.3 1.3h-12.08c-.717 0-1.3-.583-1.3-1.3v-141.046l14.68.001zm47.061-108.568c-3.375-.592-6.723 1.184-8.129 4.309l-2.099 4.66-20.466-42.089h3.833c5.915 0 11.432-1.717 16.094-4.669l19.087 39.243zm61.92-73.432c0 6.049-4.922 10.97-10.971 10.97h-47.658c.056-.636.004-19.744.021-20.969l31.833-14.5c3.769-1.717 5.433-6.165 3.716-9.934s-6.16-5.436-9.935-3.716l-27.458 12.507c-3.373-9.167-11.075-16.255-20.615-18.78l49.322-38.752c2.375-1.869 5.334-2.66 8.325-2.232 2.997.429 5.616 2.022 7.375 4.486l12.299 17.218c2.45 3.433 3.745 7.47 3.745 11.673v52.029z"/></g></svg>